<?xml version="1.0" standalone="yes"?>
<svg xmlns="http://www.w3.org/2000/svg" xmlns:xlink="http://www.w3.org/1999/xlink" version="1.1" id="Layer_1" x="0px"
    y="0px" width="100%" viewBox="0 0 375 400" enable-background="new 0 0 389 451" xml:space="preserve"
    style="zoom: 0.5;" height="100%">
    <defs id="svg_document_defs">
        <style id="Urbanist_Google_Webfont_import">
            @import url(https://fonts.googleapis.com/css?family=Urbanist);
        </style>
    </defs>
    <circle stroke="#101E38" transform="" id="circle1" stroke-width="3px" cy="208.215668px" fill="#101E38"
        r="84.411758px" cx="196.911743px"></circle>
    <path
        d="M148.190186,246.390564 C147.693542,244.446732 147.178772,242.832260 147.168991,241.214706 C147.098465,229.552795 146.942368,217.885010 147.269302,206.231857 C147.345505,203.515762 148.528458,200.289932 150.297821,198.248077 C163.929810,182.516800 177.816315,167.005722 191.658340,151.457047 C196.320099,146.220505 198.584610,146.292297 203.305527,151.694199 C217.002914,167.367371 230.779068,182.973892 244.265320,198.826904 C246.112686,200.998444 247.314484,204.397430 247.400040,207.270294 C247.742111,218.755371 247.414154,230.258575 247.569962,241.751892 C247.633392,246.431992 245.605682,248.552765 241.067993,248.554047 C220.242264,248.559937 199.416321,248.615585 178.590927,248.534927 C173.307068,248.514465 171.912003,246.952454 171.858826,241.508942 C171.777435,233.179611 172.028442,224.842773 171.761703,216.521194 C171.617722,212.029388 172.989624,208.682220 176.130264,205.422836 C185.716980,195.473511 194.903290,185.139130 204.446564,175.146667 C206.982834,172.491013 207.072189,170.625092 204.478943,168.135757 C202.104706,165.856644 200.026093,163.269592 197.368515,160.320282 C193.389755,164.694611 189.694595,168.687683 186.076141,172.749100 C177.323730,182.572952 168.492844,192.331635 159.975296,202.355942 C158.330414,204.291809 157.217422,207.295792 157.144333,209.843933 C156.833969,220.664520 157.112228,231.500427 156.962204,242.327789 C156.881378,248.160004 153.670120,249.697617 148.190186,246.390564 M237.924866,228.436096 C237.923050,222.772186 238.288818,217.074493 237.772461,211.457886 C237.492188,208.409195 236.358200,204.984222 234.483276,202.623154 C229.106110,195.851776 223.095703,189.586670 217.481049,182.997467 C216.429367,181.763214 216.057678,179.949554 215.372192,178.403290 C213.349747,180.339783 213.029205,180.483032 212.808395,180.719421 C206.670319,187.290451 201.113815,194.551147 194.280167,200.292068 C183.751343,209.137344 179.513107,219.715927 181.764923,233.107391 C181.792191,233.269547 181.788681,233.442322 181.768280,233.606247 C181.305298,237.324356 182.496399,238.871094 186.672379,238.801361 C201.993942,238.545532 217.322372,238.710785 232.648163,238.683609 C234.253922,238.680771 235.859299,238.453415 237.924850,238.294937 C237.924850,235.023880 237.924850,232.218338 237.924866,228.436096 "
        visibility="visible" stroke="none" fill="#8C8E91" opacity="1.000000"></path>
</svg>